<?xml version="1.0" standalone="no"?>
<!DOCTYPE svg PUBLIC "-//W3C//DTD SVG 20010904//EN"
 "http://www.w3.org/TR/2001/REC-SVG-20010904/DTD/svg10.dtd">
<svg version="1.0" xmlns="http://www.w3.org/2000/svg"
 width="32.000000pt" height="32.000000pt" viewBox="0 0 32.000000 32.000000"
 preserveAspectRatio="xMidYMid meet">

<g transform="translate(0.000000,32.000000) scale(0.100000,-0.100000)"
fill="#000000" stroke="none">
<path d="M0 214 c0 -96 1 -104 16 -90 20 21 30 20 54 -4 24 -24 27 -82 4 -104
-14 -15 -12 -16 27 -16 34 0 40 3 31 12 -17 17 -17 279 0 296 9 9 -4 12 -60
12 l-72 0 0 -106z"/>
<path d="M188 308 c17 -17 17 -279 0 -296 -9 -9 -3 -12 31 -12 39 0 41 1 27
16 -22 22 -22 161 0 192 18 26 37 28 58 6 15 -14 16 -10 16 45 l0 61 -72 0
c-56 0 -69 -3 -60 -12z"/>
<path d="M140 160 c0 -123 1 -130 20 -130 19 0 20 7 20 130 0 123 -1 130 -20
130 -19 0 -20 -7 -20 -130z"/>
<path d="M260 115 c0 -69 3 -85 15 -85 12 0 15 16 15 85 0 69 -3 85 -15 85
-12 0 -15 -16 -15 -85z"/>
<path d="M30 70 c0 -29 4 -40 15 -40 11 0 15 11 15 40 0 29 -4 40 -15 40 -11
0 -15 -11 -15 -40z"/>
<path d="M0 10 c0 -5 5 -10 11 -10 5 0 7 5 4 10 -3 6 -8 10 -11 10 -2 0 -4 -4
-4 -10z"/>
<path d="M305 10 c-3 -5 -1 -10 4 -10 6 0 11 5 11 10 0 6 -2 10 -4 10 -3 0 -8
-4 -11 -10z"/>
</g>
</svg>
