<?xml version="1.0" standalone="no"?>
<!DOCTYPE svg PUBLIC "-//W3C//DTD SVG 20010904//EN"
 "http://www.w3.org/TR/2001/REC-SVG-20010904/DTD/svg10.dtd">
<svg version="1.0" xmlns="http://www.w3.org/2000/svg"
 width="24.000000pt" height="24.000000pt" viewBox="0 0 24.000000 24.000000"
 preserveAspectRatio="xMidYMid meet">

<g transform="translate(0.000000,24.000000) scale(0.100000,-0.100000)"
fill="#000000" stroke="none">
<path d="M0 183 l0 -57 55 54 c30 30 55 56 55 57 0 2 -25 3 -55 3 l-55 0 0
-57z"/>
<path d="M180 185 c30 -30 56 -55 57 -55 2 0 3 25 3 55 l0 55 -57 0 -57 0 54
-55z"/>
<path d="M65 170 c-33 -34 -46 -53 -38 -58 6 -4 13 -27 15 -52 2 -33 8 -46 21
-48 13 -3 17 3 17 25 0 35 16 53 46 53 24 0 34 -17 34 -57 0 -18 5 -24 18 -21
12 2 18 15 20 48 2 25 9 48 15 52 8 5 -5 24 -38 58 -27 27 -52 50 -55 50 -3 0
-28 -23 -55 -50z"/>
<path d="M0 56 c0 -47 3 -56 18 -56 14 0 17 7 14 45 -2 24 -10 49 -18 56 -12
10 -14 2 -14 -45z"/>
<path d="M222 98 c-5 -7 -12 -32 -14 -55 -3 -36 -1 -43 14 -43 15 0 18 9 18
55 0 58 -2 62 -18 43z"/>
<path d="M107 74 c-4 -4 -7 -22 -7 -41 0 -28 4 -33 23 -33 22 0 23 3 18 37 -6
35 -20 51 -34 37z"/>
</g>
</svg>
