<?xml version="1.0" standalone="no"?>
<!DOCTYPE svg PUBLIC "-//W3C//DTD SVG 20010904//EN"
 "http://www.w3.org/TR/2001/REC-SVG-20010904/DTD/svg10.dtd">
<svg version="1.0" xmlns="http://www.w3.org/2000/svg"
 width="32.000000pt" height="32.000000pt" viewBox="0 0 32.000000 32.000000"
 preserveAspectRatio="xMidYMid meet">

<g transform="translate(0.000000,32.000000) scale(0.100000,-0.100000)"
fill="#000000" stroke="none">
<path d="M0 303 c0 -10 4 -14 8 -8 4 6 11 13 16 18 5 4 2 7 -7 7 -10 0 -17 -8
-17 -17z"/>
<path d="M224 304 c17 -17 23 -104 7 -104 -6 0 -11 19 -13 42 -2 23 -9 43 -16
46 -10 3 -12 -25 -10 -130 2 -80 7 -133 13 -133 6 0 11 21 13 48 4 61 20 61
24 -1 3 -47 3 -47 41 -50 l37 -3 0 62 c0 60 -1 61 -18 46 -25 -23 -35 -21 -29
3 4 17 0 20 -24 20 -16 0 -29 5 -29 10 0 6 13 10 29 10 24 0 28 3 24 20 -6 24
4 26 29 3 17 -15 18 -13 18 55 l0 72 -56 0 c-50 0 -54 -1 -40 -16z"/>
<path d="M30 155 l0 -136 68 3 67 3 0 130 0 130 -67 3 -68 3 0 -136z m110 10
c0 -14 -4 -25 -10 -25 -5 0 -10 11 -10 25 0 14 5 25 10 25 6 0 10 -11 10 -25z"/>
</g>
</svg>
