<?xml version="1.0" standalone="no"?>
<!DOCTYPE svg PUBLIC "-//W3C//DTD SVG 20010904//EN"
 "http://www.w3.org/TR/2001/REC-SVG-20010904/DTD/svg10.dtd">
<svg version="1.0" xmlns="http://www.w3.org/2000/svg"
 width="24.000000pt" height="24.000000pt" viewBox="0 0 24.000000 24.000000"
 preserveAspectRatio="xMidYMid meet">

<g transform="translate(0.000000,24.000000) scale(0.100000,-0.100000)"
fill="#000000" stroke="none">
<path d="M0 120 l0 -120 55 0 c30 0 55 3 55 8 0 4 -16 32 -35 62 -43 66 -46
110 -10 145 l24 25 -44 0 -45 0 0 -120z"/>
<path d="M175 215 c35 -34 32 -78 -10 -148 -19 -32 -35 -60 -35 -63 0 -2 25
-4 55 -4 l55 0 0 120 0 120 -45 0 -44 0 24 -25z"/>
<path d="M93 220 c-24 -10 -43 -39 -43 -66 0 -20 60 -124 71 -124 12 0 69 106
69 128 0 44 -54 79 -97 62z m48 -30 c25 -14 25 -56 -1 -70 -45 -24 -86 44 -42
69 21 13 20 13 43 1z"/>
<path d="M94 165 c-4 -9 -2 -21 4 -27 16 -16 47 -5 47 17 0 26 -42 34 -51 10z"/>
</g>
</svg>
