<?xml version="1.0" standalone="no"?>
<!DOCTYPE svg PUBLIC "-//W3C//DTD SVG 20010904//EN"
 "http://www.w3.org/TR/2001/REC-SVG-20010904/DTD/svg10.dtd">
<svg version="1.0" xmlns="http://www.w3.org/2000/svg"
 width="24.000000pt" height="24.000000pt" viewBox="0 0 24.000000 24.000000"
 preserveAspectRatio="xMidYMid meet">

<g transform="translate(0.000000,24.000000) scale(0.100000,-0.100000)"
fill="#000000" stroke="none">
<path d="M1 158 l1 -83 23 52 c13 28 30 55 37 60 7 4 19 18 26 31 12 22 11 22
-38 22 l-50 0 1 -82z"/>
<path d="M152 218 c7 -13 19 -27 26 -31 7 -5 24 -32 37 -60 l23 -52 1 83 1 82
-50 0 c-49 0 -50 0 -38 -22z"/>
<path d="M94 205 c-4 -9 -2 -21 4 -27 16 -16 47 -5 47 17 0 26 -42 34 -51 10z"/>
<path d="M56 159 c-21 -31 -20 -46 4 -59 13 -7 20 -21 20 -40 0 -28 2 -30 41
-30 37 0 41 2 36 21 -4 15 2 29 20 45 17 16 23 29 18 43 -8 27 -31 45 -40 31
-8 -13 -58 -13 -72 1 -8 8 -15 4 -27 -12z"/>
<path d="M17 77 c-8 -21 8 -39 29 -35 27 5 25 42 -2 46 -12 2 -24 -3 -27 -11z"/>
<path d="M174 75 c-8 -19 3 -35 26 -35 19 0 30 17 23 38 -6 17 -42 15 -49 -3z"/>
<path d="M0 21 c0 -20 4 -21 120 -21 116 0 120 1 120 21 0 16 -3 19 -13 11
-12 -11 -35 -13 -107 -13 -72 0 -95 2 -107 13 -10 8 -13 5 -13 -11z"/>
</g>
</svg>
