<?xml version="1.0" encoding="utf-8"?>
<!-- Generator: Adobe Illustrator 16.0.0, SVG Export Plug-In . SVG Version: 6.00 Build 0)  -->
<!DOCTYPE svg PUBLIC "-//W3C//DTD SVG 1.1//EN" "http://www.w3.org/Graphics/SVG/1.1/DTD/svg11.dtd">
<svg version="1.1" id="Camada_1" xmlns="http://www.w3.org/2000/svg" xmlns:xlink="http://www.w3.org/1999/xlink" x="0px" y="0px"
	 width="612px" height="792px" viewBox="0 0 612 792" enable-background="new 0 0 612 792" xml:space="preserve">
<path fill="#23395E" d="M440.598,367.541c0.137,1.824,0.238,3.661,0.301,5.511c0.096,2.823,0.099,5.713,0.024,8.605
	c-0.084,3.326-0.252,6.46-0.472,9.377c-3.178,41.986-21.34,79.791-49.156,108.064c-27.845,28.307-66.688,47.482-108.554,51.326
	l-7.117-42.432c-20.754-4.465-43.109-16.547-56.873-28.76c-2.073-3.674-2.893-5.535-4.588-9.422
	c-6.616-15.17-10.288-31.953-10.288-49.623c0-22.574,6.022-43.743,16.547-61.983c-1.426,6.298-2.179,12.859-2.179,19.605
	c0,10.231,1.701,20,4.83,29.026c3.247,9.371,8.048,18.018,14.093,25.639c6.16,7.764,13.588,14.469,21.955,19.791
	c8.211,5.221,17.309,9.109,26.99,11.357l27.209,6.328l4.078,24.297c6.734-2.857,13.162-6.281,19.221-10.203
	c7.813-5.059,15.044-10.965,21.557-17.586c10.295-10.465,18.778-22.734,24.939-36.291c5.972-13.145,9.764-27.502,10.906-42.6
	l0.326-4.516l0.146-2.489l0.034-3.057c-0.004-0.934-0.022-1.931-0.059-2.995c-0.06-1.724-0.197-3.58-0.406-5.557
	c-0.205-1.94-0.488-3.966-0.842-6.064c-0.326-1.937-0.72-3.872-1.174-5.791c-0.463-1.96-0.968-3.815-1.506-5.553
	c-2.779-8.972-6.982-17.347-12.344-24.857c-5.432-7.611-12.059-14.332-19.605-19.889c-5.509-4.057-11.52-7.488-17.924-10.182
	c29.271,2.946,55.543,16.054,75.23,35.744C426.04,342.506,434.436,354.395,440.598,367.541"/>
<path fill="#23395E" d="M196.249,455.619c-15.584-21.98-24.751-48.826-24.751-77.81c0-37.211,15.082-70.897,39.468-95.281
	c24.384-24.386,58.075-39.469,95.283-39.469c29.864,0,57.466,9.726,79.812,26.18c21.715,15.991,38.463,38.347,47.489,64.322
	c-2.829-3.44-5.821-6.737-8.968-9.883c-24.697-24.7-58.82-39.976-96.508-39.976c-37.687,0-71.809,15.276-96.509,39.976
	c-24.698,24.697-39.976,58.821-39.976,96.507C191.589,432.43,193.211,444.307,196.249,455.619"/>
</svg>
