<?xml version="1.0" encoding="utf-8"?>
<!-- Generator: Adobe Illustrator 16.0.0, SVG Export Plug-In . SVG Version: 6.00 Build 0)  -->
<!DOCTYPE svg PUBLIC "-//W3C//DTD SVG 1.1//EN" "http://www.w3.org/Graphics/SVG/1.1/DTD/svg11.dtd">
<svg version="1.1" id="Camada_1" xmlns="http://www.w3.org/2000/svg" xmlns:xlink="http://www.w3.org/1999/xlink" x="0px" y="0px"
	 width="70px" height="70px" viewBox="0 0 45 45" enable-background="new 0 0 45 45" xml:space="preserve">
<path fill="#FFFFFF" d="M38.462,14.657v-2.981c0-1.827-1.486-3.314-3.313-3.314h-2.982c-0.611,0-1.105,0.494-1.105,1.104
	s0.494,1.104,1.105,1.104h2.982c0.609,0,1.104,0.495,1.104,1.105v2.981c0,0.61,0.494,1.105,1.105,1.105
	C37.968,15.762,38.462,15.267,38.462,14.657 M28.233,20.57l6.113-6.421c0.422-0.443,0.402-1.142-0.037-1.563
	c-0.443-0.421-1.143-0.403-1.563,0.038l-6.123,6.433c-0.008,0.007-0.014,0.015-0.021,0.021c-0.576,0.641-1.551,0.73-2.232,0.212
	l-7.014-6.371c-0.019-0.017-0.038-0.033-0.058-0.049c-1.482-1.172-3.578-1.105-4.983,0.158c-0.013,0.011-0.026,0.024-0.038,0.035
	l-1.766,1.747c-0.433,0.429-0.437,1.128-0.009,1.561c0.43,0.436,1.129,0.438,1.563,0.01l1.744-1.726
	c0.594-0.52,1.465-0.549,2.093-0.073l7.014,6.372c0.019,0.018,0.038,0.033,0.058,0.049c0.705,0.559,1.551,0.831,2.395,0.83
	C26.425,21.833,27.476,21.405,28.233,20.57 M34.374,21.009c-1.033,0-1.877,0.842-1.877,1.878v9.666c0,1.033,0.844,1.877,1.877,1.877
	c1.037,0,1.879-0.844,1.879-1.877v-9.666C36.253,21.851,35.411,21.009,34.374,21.009 M34.374,36.639
	c-2.252,0-4.086-1.832-4.086-4.086v-9.666c0-2.254,1.834-4.087,4.086-4.087c2.254,0,4.088,1.833,4.088,4.087v9.666
	C38.462,34.807,36.628,36.639,34.374,36.639 M24.324,26.145c-1.036,0-1.879,0.842-1.879,1.877v4.531
	c0,1.033,0.843,1.877,1.879,1.877c1.034,0,1.878-0.844,1.878-1.877v-4.531C26.202,26.986,25.358,26.145,24.324,26.145
	 M24.324,36.639c-2.254,0-4.088-1.832-4.088-4.086v-4.531c0-2.252,1.834-4.086,4.088-4.086c2.253,0,4.087,1.834,4.087,4.086v4.531
	C28.411,34.807,26.577,36.639,24.324,36.639 M14.271,20.181c-1.036,0-1.878,0.842-1.878,1.877v10.495
	c0,1.033,0.842,1.877,1.878,1.877c1.035,0,1.878-0.844,1.878-1.877V22.058C16.149,21.023,15.306,20.181,14.271,20.181
	 M14.271,36.639c-2.254,0-4.088-1.832-4.088-4.086V22.058c0-2.253,1.834-4.087,4.088-4.087c2.253,0,4.087,1.834,4.087,4.087v10.495
	C18.358,34.807,16.524,36.639,14.271,36.639"/>
</svg>
