<?xml version="1.0" encoding="utf-8"?>
<!-- Generator: Adobe Illustrator 16.0.0, SVG Export Plug-In . SVG Version: 6.00 Build 0)  -->
<!DOCTYPE svg PUBLIC "-//W3C//DTD SVG 1.1//EN" "http://www.w3.org/Graphics/SVG/1.1/DTD/svg11.dtd">
<svg version="1.1" id="Camada_1" xmlns="http://www.w3.org/2000/svg" xmlns:xlink="http://www.w3.org/1999/xlink" x="0px" y="0px"
	 width="70px" height="70px" viewBox="0 0 45 45" enable-background="new 0 0 45 45" xml:space="preserve">
<path fill-rule="evenodd" clip-rule="evenodd" fill="#FFFFFF" d="M19.389,21.083c-0.577,0-1.046,0.468-1.046,1.046
	c0,0.577,0.469,1.045,1.046,1.045c0.578,0,1.047-0.468,1.047-1.045C20.436,21.55,19.967,21.083,19.389,21.083 M11.799,33.742h10.782
	V11.64c0-0.591-0.481-1.072-1.073-1.072h-8.637c-0.592,0-1.072,0.481-1.072,1.072V33.742z M33.027,21.083l-2.092-2.093l1.516-1.517
	l4.683,4.682l-4.683,4.683l-1.516-1.518l2.092-2.092h-6.155v-2.146H33.027z M25.8,8.422H12.871c-1.727,0-3.141,1.369-3.215,3.079
	v24.387h27.461v-2.146H29.02v-8.367h-2.147v8.367h-2.146V11.64c0-0.375-0.065-0.736-0.185-1.072H25.8
	c0.591,0,1.072,0.481,1.072,1.072v7.296h2.147V11.64C29.02,9.866,27.574,8.422,25.8,8.422"/>
</svg>
