<?xml version="1.0" encoding="utf-8"?>
<!-- Generator: Adobe Illustrator 16.0.0, SVG Export Plug-In . SVG Version: 6.00 Build 0)  -->
<!DOCTYPE svg PUBLIC "-//W3C//DTD SVG 1.1//EN" "http://www.w3.org/Graphics/SVG/1.1/DTD/svg11.dtd">
<svg version="1.1" id="Camada_1" xmlns="http://www.w3.org/2000/svg" xmlns:xlink="http://www.w3.org/1999/xlink" x="0px" y="0px"
	 width="45px" height="45px" viewBox="0 0 45 45" enable-background="new 0 0 45 45" xml:space="preserve">
<path fill-rule="evenodd" clip-rule="evenodd" fill="#FFFFFF" d="M19.013,34.18h-3.347c-0.633,0-1.146-0.514-1.146-1.146v-8.932
	c0-0.541-0.441-0.979-0.981-0.979h-1.202c-0.193,0-0.375-0.076-0.511-0.212c-0.28-0.28-0.281-0.738-0.001-1.02l0.005-0.004
	l11.055-11.055c0.137-0.136,0.317-0.211,0.51-0.211c0.193,0,0.375,0.075,0.51,0.211l11.043,11.042l0.043,0.071h0.023
	c0.104,0.128,0.161,0.287,0.161,0.456c0,0.193-0.073,0.374-0.211,0.51c-0.132,0.132-0.308,0.208-0.496,0.209
	c-0.014,0-0.028,0.002-0.04,0.003h-1.177c-0.54,0-0.979,0.44-0.979,0.979v8.932c0,0.633-0.515,1.146-1.146,1.146h-3.348v-5.4
	c0-1.713-1.393-3.106-3.106-3.106h-2.552c-1.713,0-3.106,1.394-3.106,3.106V34.18z M15.666,36.14h4.327
	c0.539,0,0.98-0.44,0.98-0.979v-6.381c0-0.631,0.514-1.146,1.146-1.146h2.552c0.634,0,1.147,0.516,1.147,1.146v6.381
	c0,0.541,0.439,0.979,0.979,0.979h4.327c1.713,0,3.105-1.394,3.105-3.106v-7.952h0.256c0.031,0,0.06-0.001,0.09-0.005
	c0.671-0.029,1.301-0.307,1.775-0.781c1.041-1.042,1.045-2.741,0.004-3.786l-0.01-0.011L25.291,9.446
	c-0.507-0.507-1.18-0.786-1.896-0.786c-0.715,0-1.389,0.279-1.896,0.786L10.44,20.503l-0.003,0.004
	c-1.042,1.045-1.041,2.745,0.002,3.789c0.507,0.507,1.181,0.785,1.897,0.785h0.223v7.952C12.56,34.746,13.953,36.14,15.666,36.14"/>
</svg>
