<?xml version="1.0" encoding="utf-8"?>
<!-- Generator: Adobe Illustrator 16.0.0, SVG Export Plug-In . SVG Version: 6.00 Build 0)  -->
<!DOCTYPE svg PUBLIC "-//W3C//DTD SVG 1.1//EN" "http://www.w3.org/Graphics/SVG/1.1/DTD/svg11.dtd">
<svg version="1.1" id="Camada_1" xmlns="http://www.w3.org/2000/svg" xmlns:xlink="http://www.w3.org/1999/xlink" x="0px" y="0px"
	 width="35px" height="35px" viewBox="0 0 45 45" enable-background="new 0 0 45 45" xml:space="preserve">
<path fill="#9A9999" d="M25.24,14.823L12.423,27.527c-0.063,0.068-0.112,0.145-0.132,0.234l-1.422,5.65
	c-0.042,0.166,0.009,0.352,0.136,0.477c0.093,0.092,0.222,0.143,0.354,0.143c0.039,0,0.082,0,0.123-0.012l5.701-1.41
	c0.087-0.02,0.168-0.066,0.234-0.131l12.817-12.705L25.24,14.823z"/>
<path fill="#9A9999" d="M33.408,13.091l-1.428-1.413c-0.95-0.946-2.612-0.946-3.565,0l-1.746,1.73l4.99,4.951l1.749-1.73
	c0.476-0.473,0.737-1.102,0.737-1.77C34.146,14.191,33.884,13.565,33.408,13.091"/>
</svg>
