<?xml version="1.0" encoding="utf-8"?>
<!-- Generator: Adobe Illustrator 16.0.0, SVG Export Plug-In . SVG Version: 6.00 Build 0)  -->
<!DOCTYPE svg PUBLIC "-//W3C//DTD SVG 1.1//EN" "http://www.w3.org/Graphics/SVG/1.1/DTD/svg11.dtd">
<svg version="1.1" id="Camada_1" xmlns="http://www.w3.org/2000/svg" xmlns:xlink="http://www.w3.org/1999/xlink" x="0px" y="0px"
	 width="70px" height="70px" viewBox="0 0 45 45" enable-background="new 0 0 45 45" xml:space="preserve">
<path fill-rule="evenodd" clip-rule="evenodd" fill="#FFFFFF" d="M32.518,29.285c-1.361,0-2.469-1.107-2.469-2.47
	c0-1.36,1.107-2.469,2.469-2.469s2.47,1.108,2.47,2.469C34.987,28.178,33.879,29.285,32.518,29.285 M18,29.529
	c0.555-0.762,0.885-1.699,0.885-2.714c0-2.545-2.071-4.616-4.616-4.616c-0.12,0-0.238,0.007-0.356,0.015
	c-0.012-0.155-0.02-0.307-0.02-0.459c0-3.626,2.099-6.914,5.324-8.495c0.739,1.567,2.333,2.653,4.175,2.653
	c1.845,0,3.438-1.086,4.178-2.653c3.227,1.58,5.322,4.864,5.322,8.495c0,0.151-0.008,0.304-0.021,0.459
	c-0.116-0.008-0.235-0.015-0.354-0.015c-2.545,0-4.615,2.071-4.615,4.616c0,1.015,0.329,1.952,0.885,2.714
	c-1.576,1.094-3.458,1.688-5.395,1.688C21.464,31.217,19.575,30.623,18,29.529 M14.27,29.285c-1.362,0-2.469-1.107-2.469-2.47
	c0-1.36,1.107-2.469,2.469-2.469c1.361,0,2.469,1.108,2.469,2.469C16.738,28.178,15.63,29.285,14.27,29.285 M23.393,8.829
	c1.363,0,2.471,1.108,2.471,2.469c0,1.362-1.107,2.469-2.471,2.469c-1.36,0-2.467-1.107-2.467-2.469
	C20.925,9.937,22.032,8.829,23.393,8.829 M9.656,26.979v-0.334c0.058-1.579,0.912-2.957,2.172-3.745
	c-0.046-0.357-0.082-0.746-0.082-1.145c0-4.639,2.797-8.826,7.036-10.657c0.105-2.453,2.133-4.417,4.61-4.417
	c2.479,0,4.507,1.964,4.611,4.417c4.242,1.83,7.037,6.011,7.037,10.657c0,0.396-0.037,0.781-0.084,1.144
	c1.307,0.815,2.178,2.267,2.178,3.916c0,2.546-2.071,4.617-4.617,4.617c-0.732,0-1.426-0.173-2.043-0.479
	c-2.023,1.56-4.514,2.411-7.082,2.411c-2.558,0-5.06-0.854-7.081-2.409c-0.616,0.305-1.309,0.478-2.042,0.478
	C11.779,31.433,9.743,29.449,9.656,26.979"/>
</svg>
